<?xml version="1.0" ?><svg id="Layer_1" style="enable-background:new 0 0 512 512;" version="1.1" viewBox="0 0 512 512" xml:space="preserve" xmlns="http://www.w3.org/2000/svg" xmlns:xlink="http://www.w3.org/1999/xlink"><style type="text/css">
	.st0{fill:#008C8C;}
	.st1{fill:#AAAAAA;}
	.st2{fill:#22A563;}
	.st3{fill:#00ACB6;}
	.st4{fill:#79A035;}
	.st5{fill:#C2E880;}
	.st6{fill:#F2973E;}
	.st7{fill:#E74342;}
	.st8{fill:#0F72B4;}
	.st9{fill:#2294D3;}
	.st10{fill:#FFF03E;}
	.st11{fill:#37DD86;}
	.st12{fill:#8755A5;}
	.st13{fill:#A97BC9;}
</style><g id="XMLID_4_"><path class="st0" d="M268.9,29.5c-72.3,0.3-137.7,29.5-185.3,76.7l185.3,185.3V29.5z" id="XMLID_111_"/><path class="st1" d="M446.6,291.5c-0.2-49-20-93.3-52-125.6L268.9,291.5H446.6z" id="XMLID_103_"/><path class="st1" d="M385.7,174.7c-30-29.8-71.2-48.2-116.8-48.4v165.2L385.7,174.7z" id="XMLID_99_"/><path class="st1" d="M402.6,425.2c34.1-34.3,55.2-81.5,55.4-133.7h-189L402.6,425.2z" id="XMLID_97_"/><path class="st2" d="M268.9,495.8c56.3-0.2,107.3-23,144.4-59.8L268.9,291.5V495.8z" id="XMLID_96_"/><path class="st3" d="M298,5.6c-72.3,0.3-137.7,29.5-185.3,76.7L298,267.6V5.6z" id="XMLID_5_"/><path class="st4" d="M296.8,267.9h0.7L126.1,96.5c-0.1,0.1-0.2,0.3-0.4,0.4l0,0c-0.1,0.1-0.2,0.3-0.4,0.4l0,0   c-0.1,0.1-0.2,0.3-0.4,0.4l0,0c-0.1,0.1-0.2,0.3-0.4,0.4l0,0c-0.1,0.1-0.2,0.3-0.4,0.4l0,0c-0.1,0.1-0.2,0.3-0.4,0.4l0,0   c-0.1,0.1-0.2,0.3-0.4,0.4l0,0c-0.1,0.1-0.2,0.3-0.4,0.4l0,0c-0.1,0.1-0.2,0.3-0.4,0.4l0,0c-0.1,0.1-0.2,0.3-0.4,0.4l0,0   c-0.1,0.1-0.2,0.3-0.4,0.4l0,0c-0.1,0.1-0.2,0.3-0.4,0.4l0,0c-0.1,0.1-0.2,0.3-0.4,0.4l0,0c-0.1,0.1-0.2,0.3-0.4,0.4l0,0   c-0.1,0.1-0.2,0.3-0.4,0.4l0,0c-0.1,0.1-0.2,0.3-0.4,0.4l0,0c-0.1,0.1-0.2,0.3-0.4,0.4l0,0c-0.1,0.1-0.2,0.3-0.4,0.4l0,0   c-0.1,0.1-0.2,0.3-0.4,0.4l0,0c-0.1,0.1-0.2,0.3-0.4,0.4l0,0c-0.1,0.1-0.2,0.3-0.4,0.4l0,0c-0.1,0.1-0.2,0.3-0.4,0.4l0,0   c-0.1,0.1-0.2,0.3-0.4,0.4l0,0c-0.1,0.1-0.2,0.3-0.4,0.4l0,0c-0.1,0.1-0.2,0.3-0.4,0.4l0,0c-0.1,0.1-0.2,0.3-0.4,0.4l0,0   c-0.1,0.1-0.2,0.3-0.4,0.4l0,0c-0.1,0.1-0.2,0.3-0.4,0.4l0,0c-0.1,0.1-0.2,0.3-0.4,0.4l0,0c-0.1,0.1-0.2,0.3-0.4,0.4l0,0   c-0.1,0.1-0.2,0.3-0.4,0.4l0,0c-0.1,0.1-0.2,0.3-0.4,0.4l0,0c-0.1,0.1-0.2,0.3-0.4,0.4l0,0c-0.1,0.1-0.2,0.3-0.4,0.4l0,0   c-0.1,0.1-0.2,0.3-0.4,0.4l0,0c-0.1,0.1-0.2,0.3-0.4,0.4l0,0c-0.1,0.1-0.2,0.3-0.4,0.4l0,0c-0.1,0.1-0.2,0.3-0.4,0.4l0,0   c-0.1,0.1-0.2,0.3-0.4,0.4l0,0c-0.1,0.1-0.2,0.3-0.4,0.4l0,0c-0.1,0.1-0.2,0.3-0.4,0.4l0,0c-0.1,0.1-0.2,0.3-0.4,0.4l0,0   c-0.1,0.1-0.2,0.3-0.4,0.4l0,0c-0.1,0.1-0.2,0.3-0.4,0.4l0,0c-0.1,0.1-0.2,0.3-0.4,0.4l0,0c-0.1,0.1-0.2,0.3-0.4,0.4l0,0   c-0.1,0.1-0.2,0.3-0.4,0.4l0,0c-0.1,0.1-0.2,0.3-0.4,0.4l0,0c-0.1,0.1-0.2,0.3-0.4,0.4l0,0c-0.1,0.1-0.2,0.3-0.4,0.4l0,0   c-0.1,0.1-0.2,0.3-0.4,0.4l0,0c-0.1,0.1-0.2,0.3-0.4,0.4l0,0c-0.1,0.1-0.2,0.3-0.4,0.4l0,0c-0.1,0.1-0.2,0.3-0.4,0.4l0,0   c-0.1,0.1-0.2,0.3-0.4,0.4l0,0c-0.1,0.1-0.2,0.3-0.4,0.4l0,0c-0.1,0.1-0.2,0.3-0.4,0.4l0,0c-0.1,0.1-0.2,0.3-0.4,0.4l0,0   c-0.1,0.1-0.2,0.3-0.4,0.4l0,0c-0.1,0.1-0.2,0.3-0.4,0.4l0,0c-0.1,0.1-0.2,0.3-0.4,0.4l0,0c-0.1,0.1-0.2,0.3-0.4,0.4l0,0   c-0.1,0.1-0.2,0.3-0.4,0.4l0,0c-0.1,0.1-0.2,0.3-0.4,0.4l0,0c-0.1,0.1-0.2,0.3-0.4,0.4l0,0c-0.1,0.1-0.2,0.3-0.4,0.4l0,0   c-0.1,0.1-0.2,0.3-0.4,0.4l0,0c-0.1,0.1-0.2,0.3-0.4,0.4l0,0c-0.1,0.1-0.2,0.3-0.4,0.4l0,0c-0.1,0.1-0.2,0.3-0.4,0.4l0,0   c-43.7,44-70.7,104.6-71,171.4h242.5l-0.3-0.3h0.7l-0.3-0.3h0.7l-0.3-0.3h0.7l-0.3-0.3h0.7l-0.3-0.3h0.7l-0.3-0.3h0.7l-0.3-0.3h0.7   l-0.3-0.3h0.7l-0.3-0.3h0.7l-0.3-0.3h0.7l-0.3-0.3h0.7l-0.3-0.3h0.7l-0.3-0.3h0.7l-0.3-0.3h0.7l-0.3-0.3h0.7l-0.3-0.3h0.7l-0.3-0.3   h0.7l-0.3-0.3h0.7l-0.3-0.3h0.7l-0.3-0.3h0.7l-0.3-0.3h0.7l-0.3-0.3h0.7l-0.3-0.3h0.7l-0.3-0.3h0.7l-0.3-0.3h0.7l-0.3-0.3h0.7   l-0.3-0.3h0.7l-0.3-0.3h0.7l-0.3-0.3h0.7l-0.3-0.3h0.7l-0.3-0.3h0.7l-0.3-0.3h0.7l-0.3-0.3h0.7l-0.3-0.3h0.7l-0.3-0.3h0.7l-0.3-0.3   h0.7l-0.3-0.3h0.7l-0.3-0.3h0.7l-0.3-0.3h0.7l-0.3-0.3h0.7l-0.3-0.3h0.7l-0.3-0.3h0.7l-0.3-0.3h0.7l-0.3-0.3h0.7l-0.3-0.3h0.7   L287,276h0.7l-0.3-0.3h0.7l-0.3-0.3h0.7l-0.3-0.3h0.7l-0.3-0.3h0.7l-0.3-0.3h0.7l-0.3-0.3h0.7l-0.3-0.3h0.7l-0.3-0.3h0.7l-0.3-0.3   h0.7l-0.3-0.3h0.7l-0.3-0.3h0.7l-0.3-0.3h0.7l-0.3-0.3h0.7l-0.3-0.3h0.7l-0.3-0.3h0.7l-0.3-0.3h0.7l-0.3-0.3h0.7l-0.3-0.3h0.7   l-0.3-0.3h0.7l-0.3-0.3h0.7l-0.3-0.3h0.7l-0.3-0.3h0.7l-0.3-0.3h0.7L296.8,267.9z" id="XMLID_98_"/><path class="st5" d="M126.5,96.1c-43.7,44-70.7,104.6-71,171.4H298L126.5,96.1z" id="XMLID_192_"/><path class="st6" d="M475.6,267.6c-0.2-49-20-93.3-52-125.6L298,267.6H475.6z" id="XMLID_2464_"/><path class="st7" d="M414.8,150.8c-30-29.8-71.2-48.2-116.8-48.4v165.2L414.8,150.8z" id="XMLID_2465_"/><path class="st8" d="M297.6,267.9l-0.4,0.4v-0.1l-0.4,0.4v-0.1l-0.4,0.4v-0.1l-0.4,0.4v-0.1l-0.4,0.4v-0.1l-0.4,0.4   v-0.1l-0.4,0.4v-0.1l-0.4,0.4v-0.1l-0.4,0.4v-0.1l-0.4,0.4v-0.1l-0.4,0.4v-0.1l-0.4,0.4v-0.1l-0.4,0.4v-0.1l-0.4,0.4v-0.1l-0.4,0.4   V273l-0.4,0.4v-0.1l-0.4,0.4v-0.1l-0.4,0.4V274l-0.4,0.4v-0.1l-0.4,0.4v-0.1l-0.4,0.4V275l-0.4,0.4v-0.1l-0.4,0.4v-0.1l-0.4,0.4   V276l-0.4,0.4v-0.1l-0.4,0.4v-0.1l-0.4,0.4V277l-0.4,0.4v-0.1l-0.4,0.4v-0.1l-0.4,0.4V278l-0.4,0.4v-0.1l-0.4,0.4v-0.1l-0.4,0.4   V279l-0.4,0.4v-0.1l-0.4,0.4v-0.1l-0.4,0.4V280l-0.4,0.4v-0.1l-0.4,0.4v-0.1l-0.4,0.4v-0.1l-0.4,0.4v-0.1l-0.4,0.4v-0.1l-0.4,0.4   v-0.1l-0.4,0.4v-0.1l-0.4,0.4v-0.1l-0.4,0.4v-0.1l-0.4,0.4v-0.1l-0.4,0.4v-0.1l-0.4,0.4v-0.1l-0.4,0.4v-0.1l-0.4,0.4v-0.1l-0.4,0.4   v-0.1l-0.4,0.4v-0.1l-0.4,0.4v-0.1l-0.4,0.4v-0.1l-0.4,0.4v-0.1l-0.4,0.4v-0.1l-0.4,0.4v-0.1l-0.4,0.4v-0.1l-0.4,0.4v-0.1l-0.4,0.4   v-0.1l-0.4,0.4v-0.1l-0.4,0.4v-0.1l-0.4,0.4v-0.1l-0.4,0.4v-0.1l-0.4,0.4v-0.1l-0.4,0.4v-0.1l-0.4,0.4v-0.1l-0.4,0.4v-0.1l-0.4,0.4   v-0.1l-0.4,0.4v-0.1L117.6,442.9c38.9,38.6,92.3,62.5,151.3,62.7v-0.3c0.1,0,0.3,0,0.4,0v-0.3c0.1,0,0.3,0,0.4,0v-0.3   c0.1,0,0.3,0,0.4,0v-0.3c0.1,0,0.3,0,0.4,0v-0.3c0.1,0,0.3,0,0.4,0v-0.3c0.1,0,0.3,0,0.4,0v-0.3c0.1,0,0.3,0,0.4,0v-0.3   c0.1,0,0.3,0,0.4,0v-0.3c0.1,0,0.3,0,0.4,0v-0.3c0.1,0,0.3,0,0.4,0v-0.3c0.1,0,0.3,0,0.4,0v-0.3c0.1,0,0.3,0,0.4,0v-0.3   c0.1,0,0.3,0,0.4,0v-0.3c0.1,0,0.3,0,0.4,0v-0.3c0.1,0,0.3,0,0.4,0v-0.3c0.1,0,0.3,0,0.4,0v-0.3c0.1,0,0.3,0,0.4,0v-0.3   c0.1,0,0.3,0,0.4,0v-0.3c0.1,0,0.3,0,0.4,0v-0.3c0.1,0,0.3,0,0.4,0v-0.3c0.1,0,0.3,0,0.4,0v-0.3c0.1,0,0.3,0,0.4,0v-0.3   c0.1,0,0.3,0,0.4,0v-0.3c0.1,0,0.3,0,0.4,0v-0.3c0.1,0,0.3,0,0.4,0v-0.3c0.1,0,0.3,0,0.4,0v-0.3c0.1,0,0.3,0,0.4,0v-0.3   c0.1,0,0.3,0,0.4,0v-0.3c0.1,0,0.3,0,0.4,0v-0.3c0.1,0,0.3,0,0.4,0v-0.3c0.1,0,0.3,0,0.4,0v-0.3c0.1,0,0.3,0,0.4,0v-0.3   c0.1,0,0.3,0,0.4,0v-0.3c0.1,0,0.3,0,0.4,0v-0.3c0.1,0,0.3,0,0.4,0v-0.3c0.1,0,0.3,0,0.4,0v-0.3c0.1,0,0.3,0,0.4,0v-0.3   c0.1,0,0.3,0,0.4,0v-0.3c0.1,0,0.3,0,0.4,0V492c0.1,0,0.3,0,0.4,0v-0.3c0.1,0,0.3,0,0.4,0v-0.3c0.1,0,0.3,0,0.4,0V491   c0.1,0,0.3,0,0.4,0v-0.3c0.1,0,0.3,0,0.4,0v-0.3c0.1,0,0.3,0,0.4,0V490c0.1,0,0.3,0,0.4,0v-0.3c0.1,0,0.3,0,0.4,0v-0.3   c0.1,0,0.3,0,0.4,0V489c0.1,0,0.3,0,0.4,0v-0.3c0.1,0,0.3,0,0.4,0v-0.3c0.1,0,0.3,0,0.4,0V488c0.1,0,0.3,0,0.4,0v-0.3   c0.1,0,0.3,0,0.4,0v-0.3c0.1,0,0.3,0,0.4,0V487c0.1,0,0.3,0,0.4,0v-0.3c0.1,0,0.3,0,0.4,0v-0.3c0.1,0,0.3,0,0.4,0V486   c0.1,0,0.3,0,0.4,0v-0.3c0.1,0,0.3,0,0.4,0v-0.3c0.1,0,0.3,0,0.4,0V485c0.1,0,0.3,0,0.4,0v-0.3c0.1,0,0.3,0,0.4,0v-0.3   c0.1,0,0.3,0,0.4,0v-0.3c0.1,0,0.3,0,0.4,0v-0.3c0.1,0,0.3,0,0.4,0v-0.3c0.1,0,0.3,0,0.4,0v-0.3c0.1,0,0.3,0,0.4,0v-0.3   c0.1,0,0.3,0,0.4,0v-0.3c0.1,0,0.3,0,0.4,0v-0.3c0.1,0,0.3,0,0.4,0V267.9z" id="XMLID_6_"/><path class="st9" d="M146.6,418.9c38.9,38.6,92.3,62.5,151.3,62.7v-214L146.6,418.9z" id="XMLID_190_"/><path class="st10" d="M431.6,401.2c34.1-34.3,55.2-81.5,55.4-133.7H298L431.6,401.2z" id="XMLID_2467_"/><path class="st11" d="M298,471.8c56.3-0.2,107.3-23,144.4-59.8L298,267.6V471.8z" id="XMLID_2468_"/><path class="st12" d="M297.6,267.9H71.5c0,0.1,0,0.2,0,0.3h-0.4c0,0.1,0,0.2,0,0.3h-0.4c0,0.1,0,0.2,0,0.3h-0.4   c0,0.1,0,0.2,0,0.3h-0.4c0,0.1,0,0.2,0,0.3h-0.4c0,0.1,0,0.2,0,0.3H69c0,0.1,0,0.2,0,0.3h-0.4c0,0.1,0,0.2,0,0.3h-0.4   c0,0.1,0,0.2,0,0.3h-0.4c0,0.1,0,0.2,0,0.3h-0.4c0,0.1,0,0.2,0,0.3H67c0,0.1,0,0.2,0,0.3h-0.4c0,0.1,0,0.2,0,0.3h-0.4   c0,0.1,0,0.2,0,0.3h-0.4c0,0.1,0,0.2,0,0.3h-0.4c0,0.1,0,0.2,0,0.3h-0.4c0,0.1,0,0.2,0,0.3h-0.4c0,0.1,0,0.2,0,0.3h-0.4   c0,0.1,0,0.2,0,0.3h-0.4c0,0.1,0,0.2,0,0.3h-0.4c0,0.1,0,0.2,0,0.3h-0.4c0,0.1,0,0.2,0,0.3h-0.4c0,0.1,0,0.2,0,0.3h-0.4   c0,0.1,0,0.2,0,0.3h-0.4c0,0.1,0,0.2,0,0.3h-0.4c0,0.1,0,0.2,0,0.3h-0.4c0,0.1,0,0.2,0,0.3h-0.4c0,0.1,0,0.2,0,0.3H60   c0,0.1,0,0.2,0,0.3h-0.4c0,0.1,0,0.2,0,0.3h-0.4c0,0.1,0,0.2,0,0.3h-0.4c0,0.1,0,0.2,0,0.3h-0.4c0,0.1,0,0.2,0,0.3H58   c0,0.1,0,0.2,0,0.3h-0.4c0,0.1,0,0.2,0,0.3h-0.4c0,0.1,0,0.2,0,0.3h-0.4c0,0.1,0,0.2,0,0.3h-0.4c0,0.1,0,0.2,0,0.3h-0.4   c0,0.1,0,0.2,0,0.3h-0.4c0,0.1,0,0.2,0,0.3h-0.4c0,0.1,0,0.2,0,0.3h-0.4c0,0.1,0,0.2,0,0.3h-0.4c0,0.1,0,0.2,0,0.3h-0.4   c0,0.1,0,0.2,0,0.3h-0.4c0,0.1,0,0.2,0,0.3h-0.4c0,0.1,0,0.2,0,0.3h-0.4c0,0.1,0,0.2,0,0.3h-0.4c0,0.1,0,0.2,0,0.3h-0.4   c0,0.1,0,0.2,0,0.3h-0.4c0,0.1,0,0.2,0,0.3H51c0,0.1,0,0.2,0,0.3h-0.4c0,0.1,0,0.2,0,0.3h-0.4c0,0.1,0,0.2,0,0.3h-0.4   c0,0.1,0,0.2,0,0.3h-0.4c0,0.1,0,0.2,0,0.3H49c0,0.1,0,0.2,0,0.3h-0.4c0,0.1,0,0.2,0,0.3h-0.4c0,0.1,0,0.2,0,0.3h-0.4   c0,0.1,0,0.2,0,0.3h-0.4c0,0.1,0,0.2,0,0.3H47c0,0.1,0,0.2,0,0.3h-0.4c0,0.1,0,0.2,0,0.3h-0.4c0,0.1,0,0.2,0,0.3h-0.4   c0,0.1,0,0.2,0,0.3h-0.4c0,0.1,0,0.2,0,0.3h-0.4c0,0.1,0,0.2,0,0.3h-0.4c0,0.1,0,0.2,0,0.3h-0.4c0,0.1,0,0.2,0,0.3h-0.4   c0,0.1,0,0.2,0,0.3h-0.4c0,0.1,0,0.2,0,0.3h-0.4c0.2,62.3,25.5,118.8,66.2,159.9l0.4-0.4c0,0,0,0,0,0l0.4-0.4c0,0,0,0,0,0l0.4-0.4   c0,0,0,0,0,0l0.4-0.4c0,0,0,0,0,0l0.4-0.4c0,0,0,0,0,0l0.4-0.4c0,0,0,0,0,0l0.4-0.4c0,0,0,0,0,0l0.4-0.4c0,0,0,0,0,0l0.4-0.4   c0,0,0,0,0,0l0.4-0.4c0,0,0,0,0,0l0.4-0.4c0,0,0,0,0,0l0.4-0.4c0,0,0,0,0,0l0.4-0.4c0,0,0,0,0,0l0.4-0.4c0,0,0,0,0,0l0.4-0.4   c0,0,0,0,0,0l0.4-0.4c0,0,0,0,0,0l0.4-0.4c0,0,0,0,0,0l0.4-0.4c0,0,0,0,0,0l0.4-0.4c0,0,0,0,0,0l0.4-0.4c0,0,0,0,0,0l0.4-0.4   c0,0,0,0,0,0l0.4-0.4c0,0,0,0,0,0l0.4-0.4c0,0,0,0,0,0l0.4-0.4c0,0,0,0,0,0l0.4-0.4c0,0,0,0,0,0l0.4-0.4c0,0,0,0,0,0l0.4-0.4   c0,0,0,0,0,0l0.4-0.4c0,0,0,0,0,0l0.4-0.4c0,0,0,0,0,0l0.4-0.4c0,0,0,0,0,0l0.4-0.4c0,0,0,0,0,0l0.4-0.4c0,0,0,0,0,0l0.4-0.4   c0,0,0,0,0,0l0.4-0.4c0,0,0,0,0,0l0.4-0.4c0,0,0,0,0,0l0.4-0.4c0,0,0,0,0,0l0.4-0.4c0,0,0,0,0,0l0.4-0.4c0,0,0,0,0,0l0.4-0.4   c0,0,0,0,0,0l0.4-0.4c0,0,0,0,0,0l0.4-0.4c0,0,0,0,0,0l0.4-0.4c0,0,0,0,0,0l0.4-0.4c0,0,0,0,0,0l0.4-0.4c0,0,0,0,0,0l0.4-0.4   c0,0,0,0,0,0l0.4-0.4c0,0,0,0,0,0l0.4-0.4c0,0,0,0,0,0l0.4-0.4c0,0,0,0,0,0l0.4-0.4c0,0,0,0,0,0l0.4-0.4c0,0,0,0,0,0l0.4-0.4   c0,0,0,0,0,0l0.4-0.4c0,0,0,0,0,0l0.4-0.4c0,0,0,0,0,0l0.4-0.4c0,0,0,0,0,0l0.4-0.4c0,0,0,0,0,0l0.4-0.4c0,0,0,0,0,0l0.4-0.4   c0,0,0,0,0,0l0.4-0.4c0,0,0,0,0,0l0.4-0.4c0,0,0,0,0,0l0.4-0.4c0,0,0,0,0,0l0.4-0.4c0,0,0,0,0,0l0.4-0.4c0,0,0,0,0,0l0.4-0.4   c0,0,0,0,0,0l0.4-0.4c0,0,0,0,0,0l0.4-0.4c0,0,0,0,0,0l0.4-0.4c0,0,0,0,0,0l0.4-0.4c0,0,0,0,0,0l0.4-0.4c0,0,0,0,0,0l0.4-0.4   c0,0,0,0,0,0l0.4-0.4c0,0,0,0,0,0L297.6,267.9z" id="XMLID_7_"/><path class="st13" d="M71.9,267.6c0.2,62.3,25.5,118.8,66.2,159.9L298,267.6H71.9z" id="XMLID_191_"/></g></svg>